<svg width="124" height="63" viewBox="0 0 124 63" fill="none" xmlns="http://www.w3.org/2000/svg">
<path d="M55.7398 14.5865L24.1487 31.2881C17.3478 34.8837 18.8918 45.044 26.4273 46.2822L61.6249 52.0657C63.3672 52.352 65.1616 52.0482 66.7263 51.202L98.9721 33.7626C105.787 30.0768 104.063 19.8491 96.4459 18.777L60.5936 13.7312C58.9322 13.4974 57.2336 13.7967 55.7398 14.5865Z" fill="url(#paint0_linear_215_904)"/>
<path fill-rule="evenodd" clip-rule="evenodd" d="M2.40605 25.2188L53.6428 0.404241C54.2897 0.090927 55.0065 -0.0431207 55.7181 0.016103L113.262 4.80509C117.288 5.14012 118.258 10.5902 114.613 12.3928L114 12.6958V39.6726C114 39.7872 113.935 39.8918 113.832 39.9422L112.432 40.6266C112.232 40.724 112 40.5789 112 40.3571V13.6848L62.3044 38.2592C61.6256 38.5949 60.8684 38.732 60.1203 38.6546L3.6476 32.8137C-0.345419 32.4007 -1.23147 26.9805 2.40605 25.2188Z" fill="url(#paint1_linear_215_904)"/>
<defs>
<linearGradient id="paint0_linear_215_904" x1="24.3042" y1="37.4069" x2="112.095" y2="42.3088" gradientUnits="userSpaceOnUse">
<stop offset="0.356739" stop-color="#F8BF02"/>
<stop offset="1" stop-color="#FAD455"/>
</linearGradient>
<linearGradient id="paint1_linear_215_904" x1="5.02916" y1="3.70947" x2="120.148" y2="41.1506" gradientUnits="userSpaceOnUse">
<stop stop-color="#009647"/>
<stop offset="1" stop-color="#00C95F"/>
</linearGradient>
</defs>
</svg>
